<svg width="64" height="64" viewBox="0 0 64 64" fill="none" xmlns="http://www.w3.org/2000/svg" role="img" aria-label="NR-1 Copsoq — ref. atual">
  <rect width="64" height="64" rx="12" fill="#FAF8F4"/>
  <path d="M32 8C20.4 8 11 17.4 11 29c0 5.4 2 10.3 5.3 14l2.5-3.4C16.2 36.7 14.5 33 14.5 29 14.5 19.3 22.3 11.5 32 11.5S49.5 19.3 49.5 29c0 4-1.7 7.7-4.3 10.6l2.5 3.4C51 39.3 53 34.4 53 29 53 17.4 43.6 8 32 8z" fill="#2F4A43"/>
  <circle cx="32" cy="25" r="4.6" fill="#B8623E"/>
  <path d="M22 41c0-5 4-9 10-9s10 4 10 9v.5l2.4 3.2c-3.4 2-7.4 3.1-12.4 3.1s-9-.9-12.4-3.1L22 41.5V41z" fill="#2F4A43"/>
  <path d="M32 14c0-1.7 1.2-3.1 2.8-3.4-.1 1.6-1.2 2.9-2.8 3.4z" fill="#5B8A6A"/>
  <path d="M32 14c0-1.7-1.2-3.1-2.8-3.4.1 1.6 1.2 2.9 2.8 3.4z" fill="#5B8A6A"/>
  <path d="M32 14.5v3" stroke="#5B8A6A" stroke-width="1.3" stroke-linecap="round"/>
</svg>
