<svg width="64" height="64" viewBox="0 0 64 64" fill="none" xmlns="http://www.w3.org/2000/svg" role="img" aria-label="NR-1 Copsoq — shield + check">
  <rect width="64" height="64" rx="12" fill="#FAF8F4"/>
  <path d="M32 9C24.5 9 18 11.5 14 15v17c0 11 7.5 18.5 18 23 10.5-4.5 18-12 18-23V15C46 11.5 39.5 9 32 9z" fill="#2F4A43"/>
  <path d="M32 13c-5.5 0-10.5 1.7-14 4.2V32c0 8.5 5.6 14.6 14 18.6 8.4-4 14-10.1 14-18.6V17.2C42.5 14.7 37.5 13 32 13z" fill="#FAF8F4"/>
  <path d="M24 32.5l5.5 5.5L42 25.5" stroke="#B8623E" stroke-width="3.2" stroke-linecap="round" stroke-linejoin="round" fill="none"/>
</svg>
