<svg width="64" height="64" viewBox="0 0 64 64" fill="none" xmlns="http://www.w3.org/2000/svg" role="img" aria-label="NR-1 Copsoq — radar 11 dimensões">
  <rect width="64" height="64" rx="12" fill="#FAF8F4"/>
  <circle cx="32" cy="32" r="22" stroke="#E4DDD2" stroke-width="1" fill="none"/>
  <circle cx="32" cy="32" r="15" stroke="#E4DDD2" stroke-width="1" fill="none"/>
  <circle cx="32" cy="32" r="8" stroke="#E4DDD2" stroke-width="1" fill="none"/>
  <g stroke="#E4DDD2" stroke-width="0.8">
    <line x1="32" y1="10" x2="32" y2="54"/>
    <line x1="10" y1="32" x2="54" y2="32"/>
    <line x1="16.7" y1="16.7" x2="47.3" y2="47.3"/>
    <line x1="47.3" y1="16.7" x2="16.7" y2="47.3"/>
  </g>
  <polygon points="32,12 44,18 50,32 44,46 32,52 20,46 14,32 20,18" fill="#2F4A43" fill-opacity="0.12" stroke="#2F4A43" stroke-width="2" stroke-linejoin="round"/>
  <circle cx="32" cy="12" r="2" fill="#2F4A43"/>
  <circle cx="44" cy="18" r="2" fill="#2F4A43"/>
  <circle cx="50" cy="32" r="2" fill="#B8623E"/>
  <circle cx="44" cy="46" r="2" fill="#2F4A43"/>
  <circle cx="32" cy="52" r="2" fill="#2F4A43"/>
  <circle cx="20" cy="46" r="2" fill="#2F4A43"/>
  <circle cx="14" cy="32" r="2" fill="#2F4A43"/>
  <circle cx="20" cy="18" r="2" fill="#2F4A43"/>
  <circle cx="32" cy="32" r="2.4" fill="#B8623E"/>
</svg>
