<svg width="64" height="64" viewBox="0 0 64 64" fill="none" xmlns="http://www.w3.org/2000/svg" role="img" aria-label="NR-1 Copsoq — pessoas sob proteção">
  <rect width="64" height="64" rx="12" fill="#FAF8F4"/>
  <path d="M32 7C18.7 7 8 17.7 8 31v8h3v-8c0-11.6 9.4-21 21-21s21 9.4 21 21v8h3v-8C56 17.7 45.3 7 32 7z" fill="#2F4A43"/>
  <circle cx="20" cy="36" r="3" fill="#B8623E"/>
  <path d="M14 50c0-3.3 2.7-6 6-6s6 2.7 6 6v3h-12v-3z" fill="#2F4A43"/>
  <circle cx="32" cy="33" r="3.4" fill="#B8623E"/>
  <path d="M25 49c0-3.9 3.1-7 7-7s7 3.1 7 7v4h-14v-4z" fill="#2F4A43"/>
  <circle cx="44" cy="36" r="3" fill="#B8623E"/>
  <path d="M38 50c0-3.3 2.7-6 6-6s6 2.7 6 6v3h-12v-3z" fill="#2F4A43"/>
</svg>
